<?xml version="1.0" standalone="no"?>
<!DOCTYPE svg PUBLIC "-//W3C//DTD SVG 20010904//EN"
 "http://www.w3.org/TR/2001/REC-SVG-20010904/DTD/svg10.dtd">
<svg version="1.0" xmlns="http://www.w3.org/2000/svg"
 width="1200.000000pt" height="1200.000000pt" viewBox="0 0 1200.000000 1200.000000"
 preserveAspectRatio="xMidYMid meet">

<g transform="translate(0.000000,1200.000000) scale(0.100000,-0.100000)"
fill="#000000" stroke="none">
<path d="M0 6000 l0 -6000 6000 0 6000 0 0 6000 0 6000 -6000 0 -6000 0 0
-6000z m7901 5048 c5 -7 9 -10 9 -6 0 13 427 -169 450 -192 3 -3 12 -6 20 -8
29 -6 100 -46 100 -55 0 -6 3 -8 6 -5 5 6 70 -26 167 -81 20 -11 54 -31 75
-42 20 -12 48 -29 62 -38 14 -9 37 -23 52 -30 15 -8 25 -17 23 -21 -2 -4 1 -7
8 -7 11 0 254 -157 267 -172 3 -3 22 -17 42 -31 21 -14 38 -28 38 -32 0 -5 5
-8 11 -8 6 0 16 -6 24 -12 23 -23 55 -48 60 -48 6 0 40 -27 71 -57 13 -13 25
-23 28 -23 3 0 19 -12 36 -27 17 -16 44 -39 60 -53 111 -97 172 -154 314 -296
169 -170 249 -254 240 -254 -2 0 10 -15 28 -34 18 -19 47 -52 65 -73 17 -21
40 -48 50 -60 10 -11 25 -31 33 -43 8 -12 27 -36 42 -54 15 -17 28 -34 28 -38
0 -4 11 -19 25 -33 14 -14 23 -25 20 -25 -4 0 0 -7 7 -15 30 -33 42 -49 84
-113 24 -37 48 -73 54 -79 6 -7 8 -13 4 -13 -4 0 3 -8 14 -19 12 -10 19 -21
15 -25 -3 -3 0 -6 7 -6 7 0 11 -3 7 -6 -3 -3 5 -18 18 -32 13 -14 22 -29 19
-34 -3 -4 0 -8 6 -8 6 0 8 -4 5 -10 -3 -5 -3 -10 2 -10 7 0 42 -54 42 -66 0
-2 7 -12 16 -20 8 -9 13 -20 10 -25 -4 -5 -2 -9 3 -9 5 0 15 -13 22 -30 7 -16
17 -30 22 -30 5 0 6 -4 3 -10 -3 -5 -1 -10 6 -10 7 0 10 -3 6 -6 -3 -4 1 -13
9 -21 8 -8 12 -19 9 -24 -4 -5 -1 -9 5 -9 6 0 9 -4 6 -9 -4 -5 -2 -11 3 -13
11 -4 154 -287 154 -305 0 -7 4 -13 9 -13 4 0 8 -6 8 -13 0 -7 10 -33 22 -58
11 -24 21 -50 21 -56 0 -7 4 -13 9 -13 4 0 8 -7 8 -15 0 -9 9 -33 20 -54 10
-21 16 -41 13 -45 -4 -3 0 -6 7 -6 7 0 11 -3 7 -6 -3 -4 0 -19 8 -34 8 -15 11
-30 8 -34 -4 -3 0 -6 7 -6 7 0 11 -3 7 -6 -3 -4 2 -23 12 -43 9 -20 17 -43 16
-51 0 -8 2 -17 5 -20 5 -5 30 -67 33 -85 2 -5 6 -15 9 -21 4 -6 9 -21 11 -35
3 -13 12 -48 20 -77 9 -28 13 -52 9 -52 -4 0 -2 -4 4 -8 9 -6 37 -93 31 -99
-1 -1 -28 22 -59 50 -474 437 -950 724 -1513 913 -154 51 -389 116 -469 128
-21 4 -41 8 -45 10 -3 2 -26 7 -51 10 -43 6 -77 11 -130 21 -14 2 -52 7 -85
11 -33 3 -68 8 -78 10 -135 25 -711 25 -870 -1 -12 -2 -43 -6 -69 -9 -143 -17
-148 -18 -383 -66 -22 -5 -76 -18 -120 -30 -44 -12 -89 -24 -100 -27 -52 -13
-278 -88 -345 -114 -549 -215 -1010 -517 -1422 -931 -150 -151 -357 -399 -454
-545 -30 -46 -61 -89 -69 -97 -8 -8 -15 -18 -16 -23 0 -4 -27 -51 -59 -103
-33 -52 -72 -121 -87 -152 -27 -56 -51 -78 -40 -38 3 11 2 22 -3 25 -4 2 -11
24 -15 47 -13 70 -14 72 -19 93 -2 11 -5 20 -6 20 -1 0 -3 14 -6 30 -15 100
-16 108 -31 220 -21 165 -27 268 -27 470 0 215 9 364 28 490 4 22 8 58 11 80
2 22 7 51 11 65 3 14 5 36 5 49 -1 12 2 28 6 34 4 6 8 20 9 31 6 53 43 218 57
251 12 31 17 51 19 73 1 6 6 12 11 12 6 0 8 3 5 6 -4 3 -2 20 3 37 6 18 12 40
14 49 2 9 9 26 15 37 6 12 8 21 5 21 -3 0 3 17 14 38 11 21 22 55 26 75 4 20
11 37 17 37 5 0 7 4 3 9 -3 5 1 16 9 24 8 8 13 17 10 20 -4 3 -2 12 2 19 5 7
9 20 11 28 1 8 7 16 13 18 5 2 8 7 5 12 -3 5 0 14 7 22 7 7 14 20 16 29 3 23
163 333 173 337 5 2 7 8 3 13 -3 5 -1 9 4 9 5 0 17 18 27 40 10 22 21 40 25
40 4 0 15 18 25 40 10 22 22 40 26 40 4 0 10 8 14 19 3 10 13 28 23 39 9 11
24 30 32 42 8 12 21 29 28 36 7 8 11 14 7 14 -3 0 -1 6 5 13 23 27 46 56 60
77 8 12 26 35 40 50 14 16 36 43 50 61 33 43 61 75 142 162 37 40 74 79 81 87
48 53 200 184 210 182 6 -2 9 0 5 4 -4 4 2 16 15 26 59 51 76 66 117 98 25 19
47 38 48 42 2 4 10 8 18 8 8 0 14 3 14 8 0 4 25 23 55 42 30 19 55 38 55 43 0
4 5 7 10 7 6 0 20 9 32 20 12 11 28 20 35 20 7 0 13 5 13 10 0 6 7 10 15 10 8
0 15 5 15 10 0 6 4 10 9 10 4 0 48 24 97 54 83 51 371 199 376 194 2 -1 17 5
33 15 26 14 100 46 108 46 1 0 34 13 74 30 39 16 74 27 77 23 3 -3 6 -1 6 5 0
5 7 10 15 11 8 1 22 3 30 4 8 1 15 4 15 8 0 4 6 7 13 8 23 1 56 11 76 22 12 6
21 8 21 5 0 -4 6 -3 13 2 6 4 18 9 25 10 30 7 47 12 47 13 0 2 33 10 55 14 8
1 25 6 37 10 12 4 31 9 42 11 12 3 29 7 40 9 10 2 34 7 52 10 19 3 45 8 59 12
14 3 37 7 52 8 15 1 30 5 33 8 11 11 88 0 96 -14z m784 -2741 c17 -2 57 -7 90
-11 33 -4 71 -9 85 -11 14 -2 45 -7 70 -10 98 -13 148 -22 227 -41 38 -9 79
-18 93 -21 124 -22 432 -127 645 -218 49 -21 277 -135 325 -162 121 -69 286
-175 341 -217 15 -12 39 -30 55 -41 144 -103 282 -222 449 -390 104 -104 264
-287 266 -303 0 -4 2 -14 4 -23 1 -8 6 -41 9 -71 4 -31 9 -66 11 -79 3 -12 7
-46 10 -74 2 -29 7 -68 10 -86 4 -34 8 -72 21 -259 13 -175 8 -547 -10 -720
-3 -25 -8 -72 -11 -105 -7 -68 -15 -138 -20 -175 -2 -14 -7 -45 -10 -70 -3
-25 -10 -70 -15 -100 -5 -30 -12 -71 -15 -90 -3 -19 -8 -42 -10 -50 -2 -8 -6
-26 -9 -40 -14 -80 -41 -193 -76 -325 -22 -82 -42 -157 -44 -166 -9 -34 -86
-260 -124 -359 -100 -266 -219 -517 -379 -800 -95 -167 -313 -490 -415 -615
-127 -155 -189 -228 -226 -270 -68 -76 -245 -255 -248 -252 -2 2 4 30 12 62 9
33 17 67 19 76 2 9 13 60 24 113 12 53 24 113 27 134 3 20 7 48 9 62 3 14 7
50 11 80 3 30 8 63 10 74 3 16 7 63 20 216 6 73 6 440 0 505 -3 33 -8 88 -12
123 -3 35 -7 71 -9 80 -1 9 -6 46 -10 82 -4 36 -9 74 -11 85 -2 10 -6 37 -10
60 -3 22 -14 81 -26 130 -11 50 -22 101 -24 115 -17 91 -107 379 -168 535
-207 533 -513 997 -925 1404 -174 171 -174 172 -286 263 -337 274 -732 502
-1130 651 -104 39 -272 96 -302 101 -11 3 -51 13 -89 24 -65 19 -103 29 -149
38 -11 2 -29 6 -40 8 -45 10 -132 27 -160 31 -16 3 -41 7 -55 10 -43 8 -83 13
-150 20 -36 4 -72 9 -81 10 -44 9 -251 19 -391 19 -87 1 -158 3 -158 5 0 2 18
20 39 40 313 291 729 558 1120 718 174 71 470 168 571 187 39 8 70 15 88 20 9
3 31 8 47 11 17 2 39 7 50 9 11 2 40 7 65 11 25 4 52 9 60 10 8 1 42 6 75 10
32 4 67 9 77 10 10 2 57 7 106 10 48 4 89 9 91 11 5 4 528 -4 566 -9z m-1595
-1482 c44 -11 244 -88 338 -131 29 -13 57 -24 62 -24 6 0 10 -4 10 -10 0 -5 5
-10 10 -10 18 0 276 -133 290 -149 3 -3 26 -17 53 -31 26 -13 47 -28 47 -32 0
-5 5 -8 10 -8 13 0 164 -100 168 -112 2 -4 10 -8 18 -8 8 0 14 -4 14 -8 0 -4
13 -16 30 -25 16 -10 35 -23 42 -30 7 -7 33 -28 58 -47 25 -19 50 -39 56 -45
7 -5 36 -30 65 -55 63 -53 315 -303 379 -376 75 -86 83 -96 176 -219 129 -173
285 -415 280 -436 0 -4 6 -15 16 -25 36 -41 234 -479 253 -559 1 -5 7 -21 12
-35 10 -23 49 -149 59 -189 2 -9 17 -68 34 -131 16 -63 32 -133 36 -155 3 -22
7 -42 9 -45 2 -3 6 -26 9 -50 4 -25 9 -56 11 -70 31 -178 40 -313 40 -605 0
-234 -7 -388 -21 -460 -2 -11 -7 -40 -10 -65 -5 -45 -10 -78 -20 -135 -10 -60
-56 -262 -76 -330 -11 -38 -26 -92 -34 -120 -26 -95 -92 -266 -110 -286 -21
-23 -240 -188 -360 -272 -142 -99 -434 -270 -614 -359 -250 -124 -288 -140
-559 -245 -81 -31 -353 -120 -396 -129 -5 -1 -55 -14 -110 -29 -55 -14 -111
-28 -125 -31 -14 -2 -32 -7 -40 -10 -8 -3 -37 -10 -65 -14 -27 -5 -61 -12 -75
-15 -81 -17 -215 -41 -280 -49 -25 -3 -54 -8 -65 -10 -11 -2 -54 -7 -95 -11
-41 -4 -82 -8 -90 -10 -8 -2 -62 -6 -120 -10 -58 -4 -121 -9 -140 -11 -42 -4
-466 -4 -530 0 -185 13 -244 18 -260 21 -10 2 -47 6 -82 9 -35 4 -72 8 -84 10
-12 2 -45 7 -75 11 -135 16 -405 69 -569 112 -74 19 -136 36 -137 37 -2 1 25
10 60 20 92 26 190 56 207 63 8 3 22 7 30 9 8 2 48 17 89 34 41 16 78 30 82
30 5 0 38 13 74 30 36 16 68 30 71 30 17 0 337 167 439 230 66 40 130 78 142
84 13 6 23 14 23 19 0 4 7 7 15 7 8 0 15 4 15 8 0 5 12 15 28 23 15 8 29 17
32 20 3 3 39 30 80 60 74 53 92 67 133 103 12 10 38 30 57 45 84 63 350 323
447 436 88 102 94 109 116 138 12 16 37 47 56 70 52 65 192 272 261 387 108
181 298 578 325 680 2 8 12 35 21 60 17 46 82 251 90 283 2 9 6 27 10 40 3 12
7 33 10 47 3 14 11 50 19 80 16 65 25 105 29 140 5 35 15 101 21 130 3 13 7
42 10 65 4 22 8 51 10 65 4 29 15 136 21 206 4 62 5 471 0 544 -5 83 -17 203
-21 220 -2 8 -7 40 -10 70 -6 49 -23 157 -40 245 -5 24 -30 132 -59 255 -9 38
-60 201 -83 265 -89 251 -211 517 -327 715 -31 52 -56 98 -56 102 0 4 26 -2
58 -13 31 -11 64 -22 72 -24z"/>
</g>
</svg>
